<svg width="61" height="57" viewBox="0 0 61 57" fill="none" xmlns="http://www.w3.org/2000/svg">
<path d="M3.03009 50.9233H6.06019V12.6229C6.06027 11.6689 6.36058 10.739 6.91856 9.96516C7.47654 9.19128 8.26389 8.61261 9.16906 8.31112L33.4098 0.232897C34.093 0.00535836 34.8204 -0.0566114 35.5322 0.0520912C36.244 0.160794 36.9198 0.437059 37.5039 0.858127C38.088 1.2792 38.5638 1.83302 38.8919 2.47397C39.22 3.11492 39.3911 3.82466 39.3912 4.54472V50.9233H42.4213V23.6222C42.4214 23.3981 42.4713 23.1769 42.5672 22.9744C42.6631 22.7719 42.8028 22.5932 42.9761 22.4512C43.1494 22.3092 43.3521 22.2074 43.5695 22.1531C43.7869 22.0989 44.0136 22.0935 44.2333 22.1374L50.8874 23.4707C51.9174 23.6765 52.8442 24.2328 53.5104 25.0448C54.1766 25.8569 54.541 26.8746 54.5417 27.9249V50.9233H57.5718C58.3754 50.9233 59.1461 51.2426 59.7144 51.8108C60.2826 52.3791 60.6019 53.1498 60.6019 53.9534C60.6019 54.757 60.2826 55.5278 59.7144 56.096C59.1461 56.6643 58.3754 56.9835 57.5718 56.9835H3.03009C2.22646 56.9835 1.45575 56.6643 0.887493 56.096C0.319241 55.5278 0 54.757 0 53.9534C0 53.1498 0.319241 52.3791 0.887493 51.8108C1.45575 51.2426 2.22646 50.9233 3.03009 50.9233Z" fill="#1F64FF"/>
</svg>
