<svg width="44" height="44" viewBox="0 0 44 44" fill="none" xmlns="http://www.w3.org/2000/svg">
<rect width="44.0003" height="44.0003" rx="21.86" fill="#0161FE"/>
<mask id="mask0_1326_4143" style="mask-type:alpha" maskUnits="userSpaceOnUse" x="10" y="10" width="25" height="25">
<rect x="10.0641" y="10.0641" width="24.1539" height="24.1539" fill="#D9D9D9"/>
</mask>
<g mask="url(#mask0_1326_4143)">
<path d="M14.0897 31.1987V26.9215L27.3492 13.6872C27.5505 13.4859 27.7769 13.3349 28.0285 13.2343C28.2801 13.1337 28.5317 13.0833 28.7833 13.0833C29.0517 13.0833 29.3075 13.1337 29.5507 13.2343C29.794 13.3349 30.0078 13.4859 30.1923 13.6872L31.6013 15.0962C31.8026 15.2807 31.9535 15.4945 32.0542 15.7377C32.1548 15.981 32.2051 16.2368 32.2051 16.5051C32.2051 16.7567 32.1548 17.0083 32.0542 17.2599C31.9535 17.5115 31.8026 17.738 31.6013 17.9393L18.367 31.1987H14.0897ZM16.1026 29.1859H17.5115L27.3995 19.3231L26.695 18.5934L25.9654 17.889L16.1026 27.7769V29.1859ZM26.695 18.5934L25.9654 17.889L27.3995 19.3231L26.695 18.5934ZM24.1539 31.1987C25.3951 31.1987 26.5441 30.8884 27.6008 30.2678C28.6575 29.6472 29.1859 28.7833 29.1859 27.6763C29.1859 27.0724 29.0266 26.5525 28.7079 26.1164C28.3892 25.6802 27.9614 25.3028 27.4247 24.9841L25.9402 26.4686C26.326 26.6363 26.628 26.8208 26.846 27.0221C27.0641 27.2234 27.1731 27.4415 27.1731 27.6763C27.1731 28.0621 26.867 28.4101 26.2547 28.7204C25.6425 29.0308 24.9422 29.1859 24.1539 29.1859C23.8687 29.1859 23.6297 29.2824 23.4368 29.4753C23.2439 29.6681 23.1474 29.9072 23.1474 30.1923C23.1474 30.4775 23.2439 30.7165 23.4368 30.9094C23.6297 31.1023 23.8687 31.1987 24.1539 31.1987ZM14.6684 23.4997L16.1781 21.9901C15.8426 21.8559 15.5784 21.7175 15.3855 21.5749C15.1926 21.4324 15.0962 21.2856 15.0962 21.1346C15.0962 20.9333 15.2471 20.7321 15.549 20.5308C15.851 20.3295 16.4884 20.0192 17.4612 19.5998C18.9373 18.9625 19.9185 18.3838 20.405 17.8638C20.8914 17.3438 21.1346 16.7567 21.1346 16.1026C21.1346 15.18 20.7656 14.4462 20.0276 13.901C19.2895 13.3559 18.3167 13.0833 17.109 13.0833C16.3542 13.0833 15.679 13.2175 15.0836 13.4859C14.4881 13.7543 14.031 14.0814 13.7123 14.4672C13.5278 14.6852 13.4524 14.9284 13.4859 15.1968C13.5195 15.4652 13.6453 15.6832 13.8633 15.851C14.0814 16.0355 14.3246 16.111 14.593 16.0774C14.8613 16.0439 15.0878 15.9348 15.2723 15.7503C15.5071 15.5155 15.7671 15.3478 16.0523 15.2471C16.3374 15.1465 16.6896 15.0962 17.109 15.0962C17.7967 15.0962 18.3041 15.1968 18.6312 15.3981C18.9583 15.5994 19.1218 15.8342 19.1218 16.1026C19.1218 16.3374 18.975 16.5513 18.6815 16.7442C18.388 16.9371 17.7128 17.2767 16.6561 17.7631C15.3142 18.3502 14.3833 18.8828 13.8633 19.3608C13.3433 19.8389 13.0833 20.4301 13.0833 21.1346C13.0833 21.6714 13.2259 22.1285 13.5111 22.5059C13.7962 22.8833 14.182 23.2145 14.6684 23.4997Z" fill="white"/>
</g>
</svg>
