<svg width="19" height="19" viewBox="0 0 19 19" fill="none" xmlns="http://www.w3.org/2000/svg">
<path fill-rule="evenodd" clip-rule="evenodd" d="M9.15129 1.65352C11.5931 1.65352 11.8832 1.66267 12.8479 1.70581C13.7394 1.74764 14.2244 1.89665 14.5471 2.02214C14.9733 2.18814 15.2779 2.38552 15.5981 2.70577C15.9184 3.02602 16.1158 3.33059 16.2817 3.75802C16.4072 4.07957 16.5562 4.56452 16.5967 5.4573C16.6412 6.42067 16.6491 6.70955 16.6491 9.1526C16.6491 11.5943 16.6412 11.8845 16.5967 12.8492C16.5562 13.7407 16.4072 14.2256 16.2831 14.5485C16.1158 14.9746 15.9171 15.2791 15.5981 15.5994C15.3028 15.9031 14.9433 16.1367 14.5459 16.283C14.223 16.4086 13.7394 16.5575 12.8466 16.5981C11.8832 16.6425 11.5943 16.6504 9.15129 16.6504C6.70824 16.6504 6.41936 16.6425 5.45469 16.5981C4.56322 16.5575 4.07958 16.4086 3.75541 16.2844C3.35832 16.1374 2.99921 15.9034 2.70446 15.5994C2.40082 15.3042 2.16721 14.9446 2.02083 14.5471C1.89534 14.2243 1.74633 13.7407 1.70581 12.8479C1.66136 11.8845 1.65352 11.5943 1.65352 9.1526C1.65352 6.70955 1.66136 6.42067 1.70581 5.456C1.74633 4.56452 1.89534 4.08089 2.01952 3.75671C2.18684 3.33059 2.38552 3.02602 2.70446 2.70577C3.02471 2.38552 3.32928 2.18814 3.75671 2.02214C4.07827 1.89665 4.56322 1.74764 5.456 1.70711C6.41936 1.66267 6.70824 1.65482 9.15129 1.65482M9.15129 0.00390625C6.66772 0.00390625 6.35531 0.0143634 5.38019 0.0588062C4.40636 0.104556 3.73972 0.260106 3.15935 0.486241C2.54877 0.715767 1.99561 1.07576 1.53849 1.54111C1.07362 1.99835 0.714077 2.55149 0.484935 3.16196C0.258799 3.74102 0.103249 4.40767 0.0588063 5.38019C0.0143634 6.35532 0.00390625 6.66772 0.00390625 9.1526C0.00390625 11.6362 0.0143634 11.9485 0.0588063 12.9237C0.103249 13.8975 0.258799 14.5628 0.484935 15.1445C0.717606 15.7458 1.03132 16.2556 1.5398 16.7654C2.04828 17.2726 2.55806 17.5863 3.16066 17.8189C3.74103 18.0451 4.40636 18.2006 5.38019 18.2451C6.35531 18.2895 6.66641 18.3 9.15129 18.3C11.6349 18.3 11.9473 18.2895 12.9224 18.2451C13.8962 18.2006 14.5615 18.0451 15.1433 17.8189C15.7538 17.5894 16.307 17.2295 16.7641 16.7641C17.229 16.3068 17.5885 15.7537 17.8177 15.1433C18.0438 14.5628 18.1994 13.8975 18.2437 12.9237C18.2882 11.9485 18.2986 11.6362 18.2986 9.1526C18.2986 6.66902 18.2882 6.35662 18.2437 5.38149C18.1994 4.40767 18.0438 3.74234 17.8177 3.16066C17.5881 2.55007 17.2281 1.99692 16.7628 1.5398C16.3055 1.07493 15.7524 0.715385 15.1419 0.486241C14.5629 0.260106 13.8962 0.104556 12.9237 0.0601134C11.9485 0.0156706 11.6349 0.0052134 9.15129 0.0052134" fill="white"/>
<path fill-rule="evenodd" clip-rule="evenodd" d="M9.15165 4.45548C7.90603 4.45548 6.71145 4.9503 5.83067 5.83108C4.9499 6.71186 4.45508 7.90645 4.45508 9.15205C4.45508 10.3977 4.9499 11.5922 5.83067 12.473C6.71145 13.3538 7.90603 13.8486 9.15165 13.8486C10.3972 13.8486 11.5918 13.3538 12.4726 12.473C13.3534 11.5922 13.8482 10.3977 13.8482 9.15205C13.8482 7.90645 13.3534 6.71186 12.4726 5.83108C11.5918 4.9503 10.3972 4.45548 9.15165 4.45548ZM9.15165 12.2016C8.34284 12.2016 7.56718 11.8803 6.99528 11.3084C6.42337 10.7365 6.10208 9.96084 6.10208 9.15205C6.10208 8.34326 6.42337 7.56759 6.99528 6.99568C7.56718 6.42379 8.34284 6.10248 9.15165 6.10248C9.96044 6.10248 10.7361 6.42379 11.308 6.99568C11.8799 7.56759 12.2012 8.34326 12.2012 9.15205C12.2012 9.96084 11.8799 10.7365 11.308 11.3084C10.7361 11.8803 9.96044 12.2016 9.15165 12.2016ZM15.1318 4.26988C15.1318 4.56109 15.0161 4.84037 14.8102 5.04628C14.6043 5.2522 14.325 5.36788 14.0338 5.36788C13.7426 5.36788 13.4633 5.2522 13.2575 5.04628C13.0515 4.84037 12.9358 4.56109 12.9358 4.26988C12.9358 3.97866 13.0515 3.69938 13.2575 3.49347C13.4633 3.28755 13.7426 3.17188 14.0338 3.17188C14.325 3.17188 14.6043 3.28755 14.8102 3.49347C15.0161 3.69938 15.1318 3.97866 15.1318 4.26988Z" fill="white"/>
</svg>
