<svg width="13" height="13" viewBox="0 0 13 13" fill="none" xmlns="http://www.w3.org/2000/svg">
<path d="M11.4636 3.2778C10.6813 1.69811 9.16934 0.532259 7.41675 0.148634C5.5813 -0.25759 3.70084 0.178673 2.26408 1.33708C0.819888 2.48796 0 4.2105 0 6.05339C0 8.00165 1.16594 10.0401 2.92606 11.221V11.8454C2.91853 12.056 2.91099 12.3794 3.16674 12.6427C3.43003 12.9135 3.82119 12.9437 4.12957 12.9437H7.98842C8.39455 12.9437 8.70303 12.8308 8.91359 12.6202C9.19947 12.3268 9.19193 11.9507 9.1844 11.7476V11.221C11.5163 9.64896 12.9831 6.33174 11.4636 3.2778ZM7.33398 7.2344L6.52916 8.63349C6.42379 8.814 6.23574 8.91928 6.04016 8.91928C5.94242 8.91928 5.84459 8.89677 5.76191 8.84413C5.49109 8.68613 5.40079 8.34007 5.55126 8.07688L6.19064 6.96358H5.5588C5.1827 6.96358 4.87432 6.79813 4.70878 6.51979C4.54333 6.2339 4.5583 5.88794 4.74644 5.55696L5.55126 4.15786C5.70918 3.88705 6.05523 3.79684 6.31851 3.94722C6.58933 4.10523 6.67954 4.45119 6.52916 4.71447L5.88978 5.82777H6.52163C6.89772 5.82777 7.20611 5.99322 7.37155 6.27157C7.53709 6.55736 7.52203 6.91094 7.33398 7.2344Z" fill="white"/>
</svg>
