<svg width="19" height="15" viewBox="0 0 19 15" fill="none" xmlns="http://www.w3.org/2000/svg">
<path fill-rule="evenodd" clip-rule="evenodd" d="M16.47 3.66V4.1175C16.47 9.0585 12.7185 14.823 5.7645 14.823C3.66 14.823 1.647 14.1825 0 13.176C0.2745 13.176 0.6405 13.2675 0.915 13.2675C2.6535 13.2675 4.3005 12.627 5.5815 11.6205C3.9345 11.6205 2.562 10.5225 2.1045 9.0585C2.379 9.0585 2.562 9.15 2.8365 9.15C3.2025 9.15 3.5685 9.15 3.843 9.0585C2.1045 8.6925 0.915 7.2285 0.915 5.3985V5.307C0.915 5.5815 1.9215 5.7645 2.562 5.7645C1.5555 5.124 0.8235 3.9345 0.8235 2.6535C0.8235 1.9215 1.0065 1.281 1.3725 0.732C3.2025 3.0195 5.9475 4.4835 9.15 4.6665C8.967 4.3005 8.8755 4.026 8.8755 3.7515C8.8755 1.647 10.5225 0 12.627 0C13.725 0 14.64 0.4575 15.372 1.1895C16.1955 1.0065 17.019 0.732 17.751 0.2745C17.4765 1.1895 16.836 1.9215 16.104 2.379C16.836 2.2875 17.568 2.1045 18.3 1.83C17.751 2.4705 17.202 3.111 16.47 3.66Z" fill="white"/>
</svg>
